# xmcd
#
# Track frame offsets:
#       150
#       12198
#       23196
#       35276
#       46492
#       59452
#       71120
#       81761
#       92734
#       102669
#       114630
#       125270
#       137733
#       149649
#       159922
#       171892
#       184293
#       195256
#       206939
#       218229
#       228242
#       239555
#       253211
#       265991
#       275477
#
# Disc length: 3790 seconds
#
# Revision: 0
# Processed by: cddbd v1.5.1PL2 Copyright (c) Steve Scherf et al.
# Submitted via: CD-DA_X-Tractor v0.24
#
DISCID=7b0ecc19
DTITLE=The Magic Of Detroit, Various Artists - The Magic Of Detroit
DYEAR=1900
DGENRE=
TTITLE0=Find A Quiet Place (And Be Lonely)
TTITLE1=Don't Do Nothing I Would'nt Do 
TTITLE2=Jack The Playboy
TTITLE3=My Love Loooks Good On You
TTITLE4=You've Got That Lovin Touch
TTITLE5=His Majesty My Love
TTITLE6=They Love To Be Loved
TTITLE7=I Wanna Tell My Baby
TTITLE8=Walk On By
TTITLE9=Hide And Seek
TTITLE10=I Will Give You Love
TTITLE11=Me And My Baby
TTITLE12=Detroit, Michigan
TTITLE13=The Same Things That Make You Laugh
TTITLE14=Hurt By Love
TTITLE15=I'm Gonna Try To Get Over 
TTITLE16=Next Best Thing
TTITLE17=Love And War
TTITLE18=Too Careless With My Love
TTITLE19=Too Many Irons In The Fire
TTITLE20=With These Eyes
TTITLE21=You're The Cream Of The Crop
TTITLE22=Together We Shall Overcome
TTITLE23=Cracked Up Over You
TTITLE24=Quittin' Time
EXTD=
EXTT0=
EXTT1=
EXTT2=
EXTT3=
EXTT4=
EXTT5=
EXTT6=
EXTT7=
EXTT8=
EXTT9=
EXTT10=
EXTT11=
EXTT12=
EXTT13=
EXTT14=
EXTT15=
EXTT16=
EXTT17=
EXTT18=
EXTT19=
EXTT20=
EXTT21=
EXTT22=
EXTT23=
EXTT24=
PLAYORDER=
